<svg xmlns="http://www.w3.org/2000/svg" width="360.612" height="320.17" viewBox="0 0 360.612 320.17"><defs><style>.a{fill:#fff;}.b{fill:#fcdc4a;}.c{fill:#211715;}</style></defs><path class="a" d="M108.42,294.846c-4.322,7.453-14.162,11.307-21.552,9.592a29.065,29.065,0,0,1-18.055-13.192c-6.879-11.614-12.735-41.275-18.411-56.881l31.233-23.622c4.168-15.566,10.861-30.065,24.408-39,6.6-4.352,19.693-9.975,26.493-12.6,9.8,6.573,25.846,10.252,39.418,10.561,13.15-.3,28.552-3.757,38.441-9.925l1.846.717a173.908,173.908,0,0,1,27.77,12.619,58.692,58.692,0,0,1,18.423,16.805,92.209,92.209,0,0,1,10.1,19.8l26.235,24.651c-5.676,15.606-11.533,45.267-18.411,56.881A29.065,29.065,0,0,1,258.3,304.438c-7.39,1.715-17.23-2.139-21.552-9.592Z"></path><path class="a" d="M130.26,73.622c8.836-7.244,18.349-16.268,27.055-24.819-.37,3.131-1.667,8.484-1.878,11.723-.084,1.3.193,1.752,1.182,2.221a4.535,4.535,0,0,0,2.635-.122,63.134,63.134,0,0,0,31.473-22.917c1.722,6.621,4.167,14.862,6.295,18.879,5.262,9.934,14.191,18.3,22.13,20.724a7.378,7.378,0,0,1,5.339-1.931,6.843,6.843,0,0,1,6.134,3.44c2.075,3.63,1.961,10.305.542,14.429-1,2.921-2.648,7.39-6.582,10.583a8.123,8.123,0,0,1-6.274,1.784l-.6-.1a47.73,47.73,0,0,1-2.18,5.844c-1.585,4.254-10.209,19-21.135,25.053.038,2.278-.031,3.1.178,5.972a13.949,13.949,0,0,0,.672,3.941,9.611,9.611,0,0,0,2.889,4.2c2.935,2.365,5.952,3.5,9.668,4.893l3.875,1.525c-9.806,6.687-25.992,10.447-39.723,10.756-13.535-.308-29.526-3.968-39.347-10.5l4.534-1.784c3.716-1.4,6.733-2.528,9.669-4.893a9.617,9.617,0,0,0,2.888-4.2,13.949,13.949,0,0,0,.672-3.941c.194-2.66.149-3.563.171-5.5-5.106-2.457-9.683-6.37-14.036-11.621a56.084,56.084,0,0,1-10.563-20.12,7.969,7.969,0,0,1-6.775-1.724c-3.909-3.223-5.518-7.7-6.5-10.633-1.386-4.135-1.449-10.811.654-14.425a6.843,6.843,0,0,1,6.161-3.391,7.513,7.513,0,0,1,4.684,1.428C126.148,76.924,128.185,75.322,130.26,73.622Z"></path><path class="a" d="M298.85,154.93l-7.38,21a11.945,11.945,0,0,0-3.68.35l-1.22.15a4.525,4.525,0,0,0-2.29-3.16,9.127,9.127,0,0,0-5.24-.79,24.6,24.6,0,0,0-3.79,1.23l8.4-23.8a60.372,60.372,0,0,0,6.88,2.82A62.516,62.516,0,0,0,298.85,154.93Z"></path><path class="a" d="M323.4,55.847c-28.55-9.687-55.788,5.729-64.568,31.6-9.824,28.951,3.57,55.729,31.7,65.274,29.212,9.912,55.115-3.739,64.876-32.5C364.251,94.17,351.856,65.5,323.4,55.847Z"></path><path class="a" d="M298.409,181.8a7.324,7.324,0,0,0-3.05-4.559c-2.56-1.774-5.706-1.592-8.751-.639a4.576,4.576,0,0,0-2.33-3.336,9.092,9.092,0,0,0-5.233-.794c-4.52.993-12.3,5.215-14.293,7.172-3.846,3.792-5.8,7.311-6.7,10.781-1.419,5.465-2.607,18.234.359,25.136,1.13,2.645.072,6.11-.427,7.451a11.212,11.212,0,0,0,2.464,1.436,97.9,97.9,0,0,0,15.374,5.74l4.552-1.471c6.724-2.172,20.321-11.65,22.479-14.732,2.02-2.884,1.3-7.8.627-11.261a25.791,25.791,0,0,0-3.4-9.442,11.6,11.6,0,0,1-1.743-3.037c-.586-2.038.064-4.165.214-6.28A7.813,7.813,0,0,0,298.409,181.8Z"></path><path class="a" d="M61.959,220.417c.923.343,1.889.714,2.968,1.128a56.006,56.006,0,0,0,8.734,2.877c2.634.54,6.238-1.026,7.763-2.06,5.917-4.322,9.31-11.434,9.978-20.865,0-4.942-1.543-9.251-2.433-13.822a45.431,45.431,0,0,0-3.316-9.631c-1.67-3.158-6.625-7.078-8.617-7.459H63.362a4.486,4.486,0,0,0-2.258-1.468,56.726,56.726,0,0,0-11.966-.978,11.457,11.457,0,0,0-5.655,1.539,5.5,5.5,0,0,0-2.515,4.675,11.314,11.314,0,0,0,1,4.2c.66,1.77,2.921,5.626,3.419,6.769l.418.766a4.722,4.722,0,0,0-1.565,2.677,11.31,11.31,0,0,0,.331,5.36,6.573,6.573,0,0,0,1.82,3.052,6.34,6.34,0,0,1,1.309,2.243c.255,5.012.569,10.688,2.73,14.814a8.528,8.528,0,0,0,4.61,3.951A71.944,71.944,0,0,1,61.959,220.417Z"></path><path class="a" d="M32.919,42.761c-3.24.978-8.033,2.412-11.245,3.385-3.691,1.118-9.464,2.891-12.569,3.831a9.744,9.744,0,0,0-4.962,3.316c-1.283,1.849-2.311,3.792-1.577,6.343,1.642,5.7,9.882,28.62,11.916,34.33a17.883,17.883,0,0,0,2.707,5.147c1.936,2.42,4.585,3.531,7.1,4.541q5.052,2.019,10.1,4.041A2.8,2.8,0,0,1,36,109.533c2.446,8.936,8.328,30.251,13.988,50.728l2.293,7.882a52.758,52.758,0,0,1,8.821.974,5.1,5.1,0,0,1,3.461,3.853h2.222c-3.052-9.252-11.141-33.772-13.93-42.211-3.394-10.273-6.286-19.009-7.923-23.928a2.8,2.8,0,0,1,.309-2.407l.016-.024q3.082-4.483,6.156-8.965c1.533-2.237,3.119-4.631,3.386-7.719a18.03,18.03,0,0,0-.6-5.783c-1.476-5.879-7.348-29.514-9.148-35.169-.8-2.529-2.731-3.578-4.825-4.4a9.746,9.746,0,0,0-5.968,0Z"></path><path class="b" d="M115.72,192.627c.343-8.247.762-18.02.837-26.587,4.442-2.126,9.142-4.153,12.9-5.684-.045,11.712-.338,32.616-.338,42.172,9.147,0,61.616.7,84.084.222-.06-12.87.187-28.785.058-41.89,4.809,1.745,9.623,3.737,14.007,5.731.133,13.222,1.06,29.149,1.254,37.9.98,12.22,3.67,25.574,5.35,51.594h1.1c-.946,19.686-2.387,49.449-2.87,61.529-13.842,0-109.6.117-120.443.107-.537-13.041-1.969-42.586-2.883-61.636h1.165c1.68-26.02,4.37-39.374,5.35-51.594C115.363,201.324,115.53,197.211,115.72,192.627Z" style="fill: rgb(253, 163, 0);"></path><path class="b" d="M124.752,162.333c2.947-1.268,5.67-2.375,7.784-3.192.029.02.061.037.09.057l4.515-1.777c3.716-1.4,6.733-2.528,9.669-4.893a9.617,9.617,0,0,0,2.888-4.2,13.949,13.949,0,0,0,.672-3.941c.194-2.66.149-3.563.171-5.5-5.106-2.457-9.683-6.37-14.036-11.621a56.084,56.084,0,0,1-10.563-20.12,7.969,7.969,0,0,1-6.775-1.724c-3.909-3.223-5.518-7.7-6.5-10.633-1.386-4.135-1.449-10.811.654-14.425a6.843,6.843,0,0,1,6.161-3.391,7.517,7.517,0,0,1,4.684,1.427c1.981-1.475,4.018-3.077,6.093-4.777,8.837-7.244,18.349-16.268,27.055-24.819-.37,3.131-1.667,8.484-1.878,11.723-.084,1.3.193,1.752,1.182,2.221a4.535,4.535,0,0,0,2.635-.122,63.134,63.134,0,0,0,31.473-22.917c1.722,6.621,4.167,14.862,6.295,18.879,5.262,9.934,14.191,18.3,22.13,20.724a7.378,7.378,0,0,1,5.339-1.931,6.845,6.845,0,0,1,6.134,3.439c2.075,3.631,1.961,10.306.542,14.43-1,2.921-2.648,7.39-6.582,10.583a8.127,8.127,0,0,1-6.274,1.784l-.6-.1a47.73,47.73,0,0,1-2.18,5.844c-1.585,4.254-10.209,19-21.135,25.053.038,2.278-.031,3.1.178,5.972a13.949,13.949,0,0,0,.672,3.941,9.611,9.611,0,0,0,2.889,4.2c2.935,2.365,5.952,3.5,9.668,4.893l3.875,1.525c-.246.167-.87.575-1.282.831l1.846.717q1.854.66,3.709,1.369l1.449,0c9.782,3.484,21.044-2.518,24.184-12.27,2.574-7.99-.624-18.346-3.007-26.395a155.212,155.212,0,0,1-5.948-42.4c.273-8.337-.309-18.221-.6-22.36-1.029-14.345-7.487-30.365-16.78-39.269-3.7-3.546-4.984-5.35-8.579-7.455l-8.3-4.113A67.687,67.687,0,0,0,171.3,2.414c-18.647,0-35.243,9.606-42.608,16.657-12.217,11.7-19.967,33.062-18.989,62.523,0,19.967-1.636,34.367-3.929,42.555a96.8,96.8,0,0,0-2.948,20.622C102.759,152.71,111.269,163.6,124.752,162.333Z" style="fill: rgb(253, 163, 0);"></path><path class="c" d="M216.3,103.415a45.423,45.423,0,0,1-1.719,5.916c-.527,1.477-.957,2.4-1.519,3.783-.112.276.213-.481.082-.2-.042.09-.079.181-.121.271-.092.2-.18.392-.274.586-.23.48-.473.954-.722,1.425-.581,1.094-1.2,2.167-1.85,3.224a58.875,58.875,0,0,1-12.711,15.025,23.419,23.419,0,0,1-9.487,4.893c-3.011.683-1.737,5.312,1.276,4.629,7.177-1.629,13.167-6.855,17.866-12.281a63.665,63.665,0,0,0,10.047-15.078c.155-.344.3-.69.446-1.038.063-.154.357-.817.078-.19.41-.92.8-1.848,1.155-2.79a46.566,46.566,0,0,0,2.082-6.9c.631-3.014-4-4.3-4.629-1.276Z"></path><path class="c" d="M122.7,104.159a59.1,59.1,0,0,0,8.328,19.734c4.246,6.405,9.828,12.413,16.6,16.183a33.006,33.006,0,0,0,11.1,3.819,2.477,2.477,0,0,0,2.952-1.676,2.417,2.417,0,0,0-1.676-2.952c-13.891-2.108-24.242-14.138-29.532-26.486a56.172,56.172,0,0,1-3.143-9.9c-.67-3.014-5.3-1.739-4.628,1.276Z"></path><path class="c" d="M163.031,118.814a19.21,19.21,0,0,0,9.248,2.173,15.049,15.049,0,0,0,9.347-2.724,2.413,2.413,0,0,0,0-3.394,2.463,2.463,0,0,0-3.4,0c.731-.565.16-.133-.027-.015s-.378.228-.573.33c-.1.052-.206.1-.307.151-.388.2.094-.022.094-.033a3.936,3.936,0,0,1-.791.284,13.362,13.362,0,0,1-2.211.5c.354-.049-.07,0-.212.015q-.326.032-.652.051c-.523.032-1.047.043-1.571.038-.469-.005-.938-.022-1.406-.056-.215-.016-.429-.036-.644-.056-.786-.072.425.087-.311-.038a16.539,16.539,0,0,1-2.063-.466c-.289-.088-.57-.192-.855-.291-.613-.214.351.182-.2-.082-.353-.169-.7-.344-1.047-.528a2.4,2.4,0,0,0-2.422,4.145Z"></path><path class="c" d="M171.148,97.043a43.527,43.527,0,0,1,1,4.682l-.086-.638a2.784,2.784,0,0,1,.015.645l.086-.638a1.577,1.577,0,0,1-.072.29l.242-.573a1.165,1.165,0,0,1-.1.186l.376-.485a.993.993,0,0,1-.154.15l.486-.376a2.983,2.983,0,0,1-.371.195l.573-.242a2.726,2.726,0,0,1-.625.18l.638-.086a2.5,2.5,0,0,1-.586,0l.638.086c-.221-.032-.438-.087-.659-.117a2.644,2.644,0,0,0-1.849.242,2.4,2.4,0,0,0-.861,3.283,2.3,2.3,0,0,0,1.434,1.1c.5.07.991.2,1.5.222a4.793,4.793,0,0,0,2.216-.523,3.2,3.2,0,0,0,1.776-2.106,5.288,5.288,0,0,0-.019-2.271c-.248-1.508-.591-3-.973-4.482a2.4,2.4,0,0,0-4.628,1.276Z"></path><path class="c" d="M146.465,83.69c-.791,2.536-.305,8.377,4.5,8.893,6.357-.013,6.723-7.072,4.6-10.4C153.821,79.458,148.675,78.308,146.465,83.69Z"></path><path class="c" d="M197.366,83.888c.771,2.542.239,8.38-4.572,8.858-6.356-.063-6.667-7.125-4.514-10.436C190.042,79.6,195.2,78.489,197.366,83.888Z"></path><path class="c" d="M220.849,81.008a5.345,5.345,0,0,1,7.465.6c-.331-.422.059.115.113.211.14.248.289.489.407.75a10.693,10.693,0,0,1,.672,2.266,19.454,19.454,0,0,1,.242,5.273,22.659,22.659,0,0,1-2.677,8.805c-1.5,2.837-4.39,6.913-8.122,6.388A2.483,2.483,0,0,0,216,106.978a2.419,2.419,0,0,0,1.677,2.953c8.609,1.209,13.652-7.253,15.908-14.342a24.7,24.7,0,0,0,.682-11.327,11.1,11.1,0,0,0-4.431-7.71,10.346,10.346,0,0,0-12.377,1.062c-2.3,2.068,1.1,5.453,3.394,3.394Z"></path><path class="c" d="M126.5,77.247a10.41,10.41,0,0,0-11.371-1.684,9.916,9.916,0,0,0-5.141,6.687c-1.859,6.805-.138,14.689,3.69,20.531,2.579,3.935,6.713,7.541,11.747,6.874a2.48,2.48,0,0,0,2.4-2.4c0-1.165-1.106-2.572-2.4-2.4-4.036.535-6.8-2.849-8.536-6.072a22.728,22.728,0,0,1-2.751-8.956,19.613,19.613,0,0,1,.274-5.457,11.849,11.849,0,0,1,.562-1.976,6.556,6.556,0,0,1,.5-.958c.056-.092.508-.706.163-.279a5.362,5.362,0,0,1,7.469-.516c2.279,2.078,5.683-1.307,3.394-3.394Z"></path><path class="c" d="M188.559,40.919c1.725,6.529,3.427,13.464,6.687,19.43a51.653,51.653,0,0,0,14,16.348,30.676,30.676,0,0,0,9.267,4.928c2.955.928,4.218-3.7,1.276-4.628-7.243-2.273-13.309-8.378-17.544-14.462-4.78-6.869-6.944-14.889-9.059-22.892-.788-2.984-5.419-1.718-4.628,1.276Z"></path><path class="c" d="M188.611,38.555A62.284,62.284,0,0,1,173.36,53.14a61.835,61.835,0,0,1-9.389,5.151c-1.623.714-3.289,1.345-4.975,1.9a5.711,5.711,0,0,1-1.1.3,2.029,2.029,0,0,0-.357,0c-.471.18.012-.2.041.082.02.186.169.757.247.48a8.564,8.564,0,0,0,.073-1.275c.369-3.687,1.357-7.3,1.814-10.974.27-2.167-2.744-3.026-4.1-1.7-8.778,8.617-17.691,17.141-27.209,24.945a2.418,2.418,0,0,0,0,3.394,2.456,2.456,0,0,0,3.4,0c9.517-7.8,18.431-16.327,27.208-24.945l-4.1-1.7c-.425,3.418-1.449,7.326-1.814,10.974-.206,2.066.231,3.916,2.168,4.972,2.071,1.128,4.47.28,6.511-.456A65.555,65.555,0,0,0,183.161,51.58a70.509,70.509,0,0,0,9.595-10.6,2.416,2.416,0,0,0-.861-3.284,2.457,2.457,0,0,0-3.284.861Z"></path><path class="c" d="M230.228,80.8a162.009,162.009,0,0,0,6.252,43.774c1.792,6.049,3.726,12.284,3.653,18.656a17.008,17.008,0,0,1-6.5,13.6,16.636,16.636,0,0,1-15.592,2.721c-2.927-1.009-4.184,3.626-1.277,4.628,11.359,3.918,24.532-3.46,27.452-15.049,1.721-6.828.159-14.136-1.649-20.777-1.942-7.131-4.047-14.133-5.3-21.435A168.992,168.992,0,0,1,235.028,80.8c-.045-3.086-4.845-3.1-4.8,0Z"></path><path class="c" d="M205.452,13.785a25.983,25.983,0,0,1,5.108,4.123c1.734,1.731,3.547,3.4,5.17,5.236a51.523,51.523,0,0,1,7.792,12.271A68.254,68.254,0,0,1,228.367,49.9,81.225,81.225,0,0,1,229.9,62.835c.329,5.978.514,11.975.329,17.961-.1,3.09,4.7,3.086,4.8,0,.173-5.584.019-11.176-.265-16.754A98.115,98.115,0,0,0,233.281,50c-2.043-10.371-6.311-20.63-12.994-28.878a85.118,85.118,0,0,0-6.075-6.353,32.392,32.392,0,0,0-6.337-5.132c-2.661-1.583-5.078,2.565-2.423,4.145Z"></path><path class="c" d="M199,5.285A72.066,72.066,0,0,0,168.868.069a68.573,68.573,0,0,0-30.293,8.952,53.438,53.438,0,0,0-17.341,15.024,68.392,68.392,0,0,0-10.291,22.337c-3.123,11.423-4.016,23.41-3.642,35.212.1,3.081,4.9,3.095,4.8,0-.566-17.856,1.625-37.151,11.487-52.511a46.346,46.346,0,0,1,14.719-14.325,64.747,64.747,0,0,1,26.861-9.6,67.515,67.515,0,0,1,32.558,4.76,2.417,2.417,0,0,0,2.953-1.676A2.459,2.459,0,0,0,199,5.285Z"></path><path class="c" d="M107.3,81.594c0,8.275-.255,16.562-1.02,24.805a101.472,101.472,0,0,1-2.57,16.172,99.591,99.591,0,0,0-3.243,20.624,19.829,19.829,0,0,0,5.856,14.839c5.456,5.61,13.158,7.6,20.764,6.4a2.417,2.417,0,0,0,1.676-2.952,2.459,2.459,0,0,0-2.952-1.677,18.351,18.351,0,0,1-15.683-4.753,17.938,17.938,0,0,1-3.919-5.637,15.345,15.345,0,0,1-.907-3.215c-.065-.393-.015.119-.041-.407-.013-.266-.033-.53-.037-.8-.01-.711.024-1.425.058-2.134a95.711,95.711,0,0,1,3.084-19.122,106.978,106.978,0,0,0,2.577-15.924c.878-8.709,1.151-17.473,1.157-26.222,0-3.089-4.8-3.094-4.8,0Z"></path><path class="c" d="M148.135,139.689c-.006,1.221-.023,2.44-.1,3.659a14.043,14.043,0,0,1-.649,4.338c-1.074,2.712-3.509,4.2-6.054,5.445-3.181,1.552-6.628,2.682-9.923,3.979a2.473,2.473,0,0,0-1.677,2.952,2.418,2.418,0,0,0,2.953,1.677c3.959-1.559,8.139-2.887,11.894-4.883a20.435,20.435,0,0,0,4.392-3.038,12.479,12.479,0,0,0,2.922-4.567c1.164-2.92,1.022-6.455,1.038-9.562.017-3.09-4.783-3.093-4.8,0Z"></path><path class="c" d="M192.008,139.689c.016,3.107-.126,6.642,1.038,9.562a12.469,12.469,0,0,0,2.923,4.567,20.429,20.429,0,0,0,4.391,3.038c3.755,2,7.936,3.324,11.895,4.883a2.417,2.417,0,0,0,2.952-1.677,2.457,2.457,0,0,0-1.676-2.952c-3.3-1.3-6.742-2.427-9.923-3.979-2.538-1.239-4.994-2.734-6.055-5.445a14.2,14.2,0,0,1-.649-4.338c-.072-1.219-.09-2.438-.1-3.659-.016-3.088-4.817-3.095-4.8,0Z"></path><path class="c" d="M260.333,188.479a62.989,62.989,0,0,0-17.1-16.194c-7.188-4.623-15.157-8.136-23.06-11.332-3.227-1.305-6.507-2.471-9.753-3.727a2.418,2.418,0,0,0-2.952,1.676,2.455,2.455,0,0,0,1.676,2.952c6.573,2.545,13.14,5,19.518,8.02,6.847,3.241,13.588,6.873,19.289,11.922a55.891,55.891,0,0,1,8.239,9.105,2.468,2.468,0,0,0,3.284.861,2.418,2.418,0,0,0,.861-3.283Z"></path><path class="c" d="M91.583,191.391A49.006,49.006,0,0,1,107.4,173.713c7.626-4.963,16.331-8.5,24.754-11.859a2.472,2.472,0,0,0,1.676-2.952,2.416,2.416,0,0,0-2.952-1.676c-4.652,1.854-9.264,3.81-13.8,5.926a93.952,93.952,0,0,0-12.425,6.632,54.282,54.282,0,0,0-17.216,19.185c-1.5,2.705,2.647,5.129,4.145,2.422Z"></path><path class="c" d="M106.348,293.634a18.8,18.8,0,0,1-16.254,8.8c-6.8-.165-13.909-4.9-17.851-10.338-3.48-4.8-5.247-10.374-7.064-15.98-2.227-6.873-4.108-13.854-6.018-20.819-1.982-7.231-3.891-14.517-6.445-21.572a2.463,2.463,0,0,0-2.953-1.676A2.421,2.421,0,0,0,48.087,235c4.995,13.8,7.9,28.275,12.412,42.23,1.942,6.009,4,12.478,7.825,17.595C73.158,301.3,80.8,306.443,89,307.174a23.526,23.526,0,0,0,21.5-11.117c1.581-2.663-2.567-5.08-4.144-2.423Z"></path><path class="c" d="M234.679,296.057a23.758,23.758,0,0,0,18.96,11.157c7.878.424,15.967-4.151,21.132-9.839,4.523-4.981,6.928-11.343,9.066-17.621,2.437-7.158,4.413-14.469,6.412-21.759,2.112-7.7,4.114-15.476,6.835-22.992a2.422,2.422,0,0,0-1.677-2.952,2.449,2.449,0,0,0-2.952,1.676c-4.722,13.043-7.573,26.709-11.688,39.945-1.742,5.6-3.463,11.176-6.369,16.171a26.264,26.264,0,0,1-17.33,12.406c-6.825,1.291-14.72-2.676-18.245-8.615-1.575-2.654-5.726-.242-4.144,2.423Z"></path><path class="c" d="M131.276,161.2c9.221,6.124,20.63,8.877,31.482,10.222a72.383,72.383,0,0,0,16.779.187,96.517,96.517,0,0,0,17.17-3.347,58.444,58.444,0,0,0,16.23-7.276c2.542-1.724.143-5.885-2.423-4.145-8.53,5.784-19.231,8.531-29.349,9.78a71.917,71.917,0,0,1-15.97.272,90.236,90.236,0,0,1-15.92-3.025A55.365,55.365,0,0,1,133.7,157.05c-2.58-1.714-4.987,2.442-2.422,4.145Z"></path><path class="c" d="M232.4,315.534c.5-.441.758-.246.289-.316a3.326,3.326,0,0,0-.489,0h-1.234l-3.3,0-10,.009-28.83.028q-16.714.018-33.43.033-14.388.014-28.777.025c-5.089,0-10.233-.216-15.318,0a2.116,2.116,0,0,0-.287,0c-.389.074-.06-.366.383.149a2.421,2.421,0,0,0-3.394,0,2.448,2.448,0,0,0,0,3.394c1.455,1.693,4.372,1.26,6.417,1.26q4.405,0,8.809,0,13.911-.009,27.823-.023l34-.033,30.3-.03c5.738-.006,11.479.035,17.217-.014a4.658,4.658,0,0,0,3.219-1.09c2.325-2.043-1.081-5.427-3.394-3.394Z"></path><path class="c" d="M105.732,241.214q.635,13.718,1.311,27.433.835,17.4,1.645,34.806c.218,4.755.435,9.511.625,14.268.123,3.078,4.924,3.094,4.8,0-.385-9.635-.852-19.267-1.307-28.9q-.813-17.2-1.647-34.4-.317-6.606-.627-13.211c-.142-3.076-4.942-3.093-4.8,0Z"></path><path class="c" d="M233.281,241.214q-.633,13.718-1.311,27.433-.835,17.4-1.645,34.806c-.218,4.755-.435,9.511-.625,14.268-.124,3.089,4.677,3.083,4.8,0,.385-9.635.852-19.267,1.307-28.9q.813-17.2,1.647-34.4.316-6.606.627-13.211c.142-3.088-4.658-3.081-4.8,0Z"></path><path class="c" d="M112.343,256.089c.832-12.8,2.236-25.528,3.86-38.25.547-4.282,1.119-8.571,1.452-12.876.451-5.833.445-11.748.683-17.6.326-8,.629-16,.635-24,0-3.088-4.8-3.093-4.8,0-.009,13.313-.886,26.6-1.249,39.9-.117,4.281-.762,8.571-1.3,12.817-.656,5.2-1.337,10.392-1.925,15.6q-1.375,12.176-2.158,24.407a2.4,2.4,0,0,0,4.8,0Z"></path><path class="c" d="M210.831,158.4c.2,14.783-.095,29.568-.03,44.352l2.4-2.4c-11.889.25-23.787.186-35.677.133q-18.466-.084-36.931-.274c-3.825-.034-7.651-.081-11.476-.081l2.4,2.4c0-12.047.208-24.094.3-36.14q.035-4.383.043-8.768c0-3.089-4.8-3.094-4.8,0,0,12.135-.206,24.269-.3,36.4-.023,2.835-.043,5.67-.043,8.5a2.436,2.436,0,0,0,2.4,2.4c8.722,0,17.444.137,26.166.208,13.2.108,26.4.2,39.605.178,6.1-.01,12.21-.036,18.313-.164a2.437,2.437,0,0,0,2.4-2.4c-.065-14.784.231-29.569.03-44.352-.042-3.087-4.842-3.095-4.8,0Z"></path><path class="c" d="M236.27,256.089c-.832-12.8-2.236-25.528-3.86-38.25-.546-4.282-1.119-8.571-1.452-12.876-.451-5.833-.445-11.748-.683-17.6-.325-8-.629-16-.635-24,0-3.088-4.8-3.094-4.8,0,.01,13.313.886,26.6,1.249,39.9.118,4.281.762,8.571,1.3,12.817.657,5.2,1.337,10.392,1.925,15.6q1.377,12.176,2.158,24.407a2.457,2.457,0,0,0,2.4,2.4,2.421,2.421,0,0,0,2.4-2.4Z"></path><path class="c" d="M60.89,183.479c2.235.541,4.477,1.067,6.674,1.751a19.643,19.643,0,0,1,5.753,2.437c.1.067.2.137.293.209q-.2-.15-.006.009c.217.188.425.381.623.589-.27-.283.067.094.138.217.06.1.263.664.123.223.068.213.123.423.18.639.137.521.034-.249.034.249,0,.224,0,.452,0,.675q-.039.433.019.031c-.016.11-.036.22-.06.329-.016.078-.192.7-.085.405s-.207.33-.259.4c.24-.339-.024,0-.153.122-.059.057-.56.435-.143.145a7.519,7.519,0,0,1-1.037.6c.506-.243.016-.018-.116.023a4.978,4.978,0,0,1-.639.149,2.41,2.41,0,0,0-1.676,2.952,2.469,2.469,0,0,0,2.952,1.676,7.519,7.519,0,0,0,5.584-4.5A7.792,7.792,0,0,0,77.545,185c-1.922-2.021-4.693-3.034-7.264-3.927-2.654-.92-5.389-1.563-8.115-2.224a2.4,2.4,0,0,0-1.276,4.629Z"></path><path class="c" d="M60.141,194.451c2.26.5,4.548.874,6.8,1.414a28.818,28.818,0,0,1,3.063.9,17.071,17.071,0,0,1,2.743,1.275c.245.139.49.28.729.429.034.022.467.335.254.158-.182-.15.091.1.1.109.287.287-.02-.143.178.214.055.1.113.2.166.3.169.322-.082-.308.028.081.012.042.139.554.1.324-.034-.2.015.229.015.216,0,.086-.022.7.013.438a3.352,3.352,0,0,1-.188.722c.018-.046.157-.308.019-.091-.246.384-.144.075-.041.08.027,0-.336.243-.049.076.247-.143-.039.029-.073.047-.159.086-.531.248-.15.111-.232.084-.469.134-.707.2-.265.071.055.007.1,0-.147.019-.3.028-.445.036a23.271,23.271,0,0,1-3.741-.142c-.6-.065-1.007-.132-1.724-.265-.69-.128-1.376-.277-2.059-.439-1.426-.339-2.836-.734-4.247-1.128a2.4,2.4,0,1,0-1.276,4.628,59.29,59.29,0,0,0,9.025,1.972c2.825.333,6.152.552,8.452-1.433,2.359-2.038,2.455-6.1.67-8.519-1.716-2.328-5-3.546-7.67-4.378-2.874-.895-5.875-1.311-8.808-1.962a2.454,2.454,0,0,0-2.952,1.676,2.427,2.427,0,0,0,1.676,2.953Z"></path><path class="c" d="M67.616,205.953c.544.309,1.063.645,1.579,1,.418.285-.347-.305,0,0,.115.1.234.2.347.3.224.205.424.428.63.652.333.361-.253-.4-.013-.011.062.1.129.2.186.3.231.427,0-.151-.066-.183.051.026.088.256.107.322.032.113.059.227.083.342q.024.119.042.237l-.054-.4a2.2,2.2,0,0,1,.028.8c0,.1-.058.571.008.109s0,0-.026.1c-.025.115-.054.228-.088.34s-.193.51-.018.083-.006-.042-.053.05c-.205.4.278-.254.127-.157a2.846,2.846,0,0,0-.28.26c-.058.05-.117.1-.176.146.271-.206.334-.258.188-.154-.245.151-.477.309-.735.439-.482.242.286-.095.064-.015-.132.047-.261.1-.394.141a10.324,10.324,0,0,1-1.766.379,2.39,2.39,0,0,0-1.434,1.1,2.4,2.4,0,0,0,.861,3.283,2.826,2.826,0,0,0,1.849.242,9.406,9.406,0,0,0,4.642-1.932,5.652,5.652,0,0,0,2.025-4.29,6.545,6.545,0,0,0-1.15-4.21,12.733,12.733,0,0,0-4.093-3.423,2.4,2.4,0,1,0-2.423,4.144Z"></path><path class="c" d="M47.178,182.273a10.522,10.522,0,0,0-4.593,4.053c-1.239,2.3-1.161,5.554-.466,8.013a11.468,11.468,0,0,0,1.263,2.963,7.29,7.29,0,0,0,1.173,1.448c.043.039.426.445.1.053a5.328,5.328,0,0,1,.395.583c.114.182.367.907.269.446a11.512,11.512,0,0,1,.09,1.655c.079,1.336.176,2.671.324,4,.523,4.709,1.473,10.06,5.374,13.208,2.061,1.662,4.526,2.095,6.986,2.9,2.31.754,4.576,1.639,6.843,2.512a52.216,52.216,0,0,0,7.635,2.531,12.021,12.021,0,0,0,7.059-.714,20.173,20.173,0,0,0,9.244-8.049A31.03,31.03,0,0,0,93.3,205.809a27.239,27.239,0,0,0,.247-7.914,76.852,76.852,0,0,0-1.609-7.887c-1.078-4.54-1.993-9.323-4.351-13.426a19.529,19.529,0,0,0-4.559-5.117c-1.542-1.275-3.353-2.737-5.354-3.194-3.007-.688-4.291,3.939-1.276,4.628.11.025.763.26.353.083a8.275,8.275,0,0,1,.905.484,16.149,16.149,0,0,1,1.844,1.283,17.457,17.457,0,0,1,3.539,3.617c1.821,2.676,2.8,6.277,3.5,9.4.956,4.277,2.326,8.637,2.451,13.042a27.173,27.173,0,0,1-2.461,11.354,20.563,20.563,0,0,1-6.039,7.92,10.989,10.989,0,0,1-4.257,1.885c-2.015.457-4.023-.325-5.921-.966-4.266-1.442-8.377-3.3-12.7-4.579-1.832-.544-3.352-.938-4.572-2.532a13.577,13.577,0,0,1-2.055-5.519,49.342,49.342,0,0,1-.789-7.092,8.968,8.968,0,0,0-.585-3.564,9.763,9.763,0,0,0-1.442-2.143,7.315,7.315,0,0,1-1.642-5.906c.191-1.681,1.681-2.535,3.073-3.247,2.751-1.407.325-5.55-2.423-4.145Z"></path><path class="c" d="M47.457,184.114c-.551-1.22-1.243-2.381-1.869-3.563a22.531,22.531,0,0,1-1.793-3.982c-.47-1.43-.741-3.054.315-4.295,1.162-1.365,3.35-1.645,5.028-1.735a51.584,51.584,0,0,1,9.028.471c1.135.15,2.521.212,3.311,1.057a3.128,3.128,0,0,1,.641,3.168c-.088.145-.065.139-.3.289a1.5,1.5,0,0,1-.631.277,7.845,7.845,0,0,1-2.172.313c-1.765.074-3.536.035-5.3.046-3.087.02-3.094,4.82,0,4.8,3.684-.023,8.726.686,11.618-2.122,3.763-3.652,1.253-10.564-3.442-11.991a28.29,28.29,0,0,0-5.52-.83,59.976,59.976,0,0,0-6.126-.309c-5.2.042-11.022,1.99-11.627,7.937-.481,4.731,2.86,8.822,4.7,12.892a2.417,2.417,0,0,0,3.283.861,2.457,2.457,0,0,0,.861-3.284Z"></path><path class="c" d="M46.31,81.664,38.248,55.055c-.893-2.949-5.527-1.692-4.628,1.276L41.682,82.94c.893,2.948,5.527,1.692,4.628-1.276Z"></path><path class="c" d="M25.484,87.974l-8.062-26.61c-.893-2.948-5.527-1.691-4.628,1.276l8.062,26.61c.893,2.948,5.527,1.692,4.628-1.276Z"></path><path class="c" d="M35.9,84.819l-8.062-26.61c-.893-2.948-5.527-1.691-4.628,1.277L31.269,86.1c.893,2.948,5.527,1.692,4.628-1.276Z"></path><path class="c" d="M52.3,159.622q-5.289-19.134-10.565-38.272c-1.14-4.14-2.126-8.361-3.422-12.455-1.082-3.416-4.919-4.165-7.882-5.351a65.563,65.563,0,0,1-8.7-3.7c-3.8-2.213-4.912-6.443-6.3-10.324q-2.046-5.727-4.075-11.46C9.917,73.97,8.481,69.882,7.086,65.78c-.534-1.568-1.062-3.137-1.568-4.714-.484-1.508-1.125-3-.488-4.569C6.015,54.072,8,52.821,10.409,52.09Q14.32,50.9,18.226,49.7c5.086-1.552,10.181-3.075,15.272-4.611,2.444-.736,4.663-1.224,7.039.021,1.619.85,2.134,2.017,2.619,3.681,1,3.429,1.893,6.891,2.791,10.347,1.981,7.626,3.89,15.269,5.806,22.911.657,2.622,1.081,5.306.078,7.9-1.109,2.871-3.28,5.421-5.007,7.936l-3.077,4.482a5.893,5.893,0,0,0-1.229,4.687,57.383,57.383,0,0,0,2.056,6.295q9.192,27.731,18.324,55.48l1.575,4.773c.963,2.92,5.6,1.669,4.628-1.276q-8.916-27.03-17.845-54.054-1.341-4.048-2.683-8.1l-1.008-3.036a4.219,4.219,0,0,1-.373-1.137c.019-.625.785-1.336,1.12-1.823,2.019-2.939,4.111-5.842,6.048-8.837a15.851,15.851,0,0,0,2.869-9.391c-.175-3.83-1.475-7.692-2.405-11.4q-1.654-6.593-3.34-13.176c-1.015-3.952-2.034-7.9-3.124-11.836a37.773,37.773,0,0,0-1.271-4.136,10.026,10.026,0,0,0-6.6-5.5c-2.883-.905-5.786-.2-8.573.644Q27.8,41.8,23.675,43.035C18.6,44.562,13.512,46.049,8.467,47.663a12.29,12.29,0,0,0-7.2,5.671,9.383,9.383,0,0,0-.785,7.722c1.02,3.338,2.181,6.635,3.324,9.932,2.659,7.677,5.4,15.324,8.13,22.975a20.759,20.759,0,0,0,4.1,7.475c2.137,2.277,5.006,3.485,7.845,4.622l4.818,1.929,2.753,1.1,1.147.459.689.275q.814.307.213.106c.837,1.388,1.074,3.482,1.51,5.066q4.909,17.871,9.853,35.731L47.676,160.9c.822,2.973,5.454,1.71,4.628-1.277Z"></path><path class="c" d="M281.336,149.272l-7.343,20.805-1.057,3a2.4,2.4,0,0,0,4.628,1.276l7.343-20.8,1.057-3a2.423,2.423,0,0,0-1.676-2.952,2.447,2.447,0,0,0-2.952,1.676Z"></path><path class="c" d="M296.45,154.94c0-.974.066-.572-.111-.068l-.535,1.522-1.759,5-3.974,11.3-.915,2.6a2.4,2.4,0,1,0,4.628,1.276l6.536-18.578a10.16,10.16,0,0,0,.93-3.05c0-3.088-4.8-3.094-4.8,0Z"></path><path class="c" d="M343.6,84.7c-8.233-15.389-26.282-23.853-43.41-21.321-16.113,2.382-28.743,14.877-32.959,30.346a42.641,42.641,0,0,0,.009,23.4,38.164,38.164,0,0,0,12.109,18.251c12.087,10.021,29.94,13.7,44.553,7.362,15.343-6.653,24.993-24.206,24.351-40.634a43.142,43.142,0,0,0-1.053-7.838c-.684-3.011-5.313-1.737-4.629,1.276,3.423,15.083-3.467,32.7-16.822,40.845-12.024,7.329-27.652,5.552-39.289-1.745a34.58,34.58,0,0,1-13.015-14.609,35.287,35.287,0,0,1-2.72-19.568C272.671,86.235,282.013,73.521,296,69.239c14.389-4.406,31.392.99,40.439,13.09a37.716,37.716,0,0,1,3.024,4.791c1.457,2.725,5.6.3,4.144-2.422Z"></path><path class="c" d="M324.043,53.533a54,54,0,0,0-34.511-.278,52.8,52.8,0,0,0-25.9,19.492c-12.706,17.914-14.366,43.989-1.458,62.222,12.739,17.993,37.689,27.2,59.1,21.9,21.52-5.32,36.248-25.612,38.932-47.028a51.821,51.821,0,0,0-27.951-52.834,61.564,61.564,0,0,0-8.216-3.476c-2.928-1-4.185,3.631-1.276,4.629A49.286,49.286,0,0,1,347.03,75.807a47.529,47.529,0,0,1,8.785,26.9c.253,19.35-11.155,39.682-29.287,47.392-9.132,3.882-19.391,4.3-29,2.117-10.177-2.311-19.835-7.157-27.1-14.735a44.735,44.735,0,0,1-11.984-24.93,53.641,53.641,0,0,1,5.295-30.642,48.613,48.613,0,0,1,20.888-21.366,47.35,47.35,0,0,1,29.891-4.5,56.963,56.963,0,0,1,8.254,2.124C325.7,59.147,326.962,54.512,324.043,53.533Z"></path><path class="c" d="M260.294,223.654a12.8,12.8,0,0,0,.316-8.992,24.884,24.884,0,0,1-1.522-7.349,53.459,53.459,0,0,1,1.06-15.362,19.26,19.26,0,0,1,3.43-7.382,24.132,24.132,0,0,1,2.987-3.335c.136-.124.276-.242.418-.359-.419.346.175-.127.217-.156.514-.359,1.035-.706,1.568-1.036a48.668,48.668,0,0,1,6.9-3.565c2.286-.951,4.671-1.895,7.114-.9a2.526,2.526,0,0,1,1.534,2.239,3.377,3.377,0,0,1-1.37,2.723c-.609.574.645-.339-.417.31-.463.282-.917.577-1.382.855q-1.088.648-2.207,1.24c-1.625.861-3.286,1.65-4.932,2.467-2.767,1.374-.339,5.516,2.422,4.145,5.356-2.66,14.468-5.958,12.4-13.65-1.011-3.754-4.535-5.4-8.17-5.575-3.1-.146-6.314,1.449-9.043,2.732a41.057,41.057,0,0,0-7.206,4.143,25.09,25.09,0,0,0-6.649,7.911c-2.842,5.187-3.405,11.528-3.566,17.341a43.84,43.84,0,0,0,.893,10.915c.354,1.551,1.227,3.075,1.4,4.642a10.69,10.69,0,0,1-.819,4.722,2.422,2.422,0,0,0,1.676,2.952,2.45,2.45,0,0,0,2.953-1.676Z"></path><path class="c" d="M288.432,178.591c2.347-.529,4.961-.431,6.614,1.57s1.006,4.416.747,6.752a9.7,9.7,0,0,0,.353,4.343,24.939,24.939,0,0,0,2.325,3.985,25.4,25.4,0,0,1,2.689,8.125,22.2,22.2,0,0,1,.549,6.792,6.05,6.05,0,0,1-1,2.714c.317-.474.109-.148-.118.1s-.446.462-.678.683a59,59,0,0,1-8.619,6.513c-2.069,1.361-4.184,2.659-6.359,3.845a31.414,31.414,0,0,1-5.2,2.4c-2.919.965-1.669,5.6,1.276,4.629a53.5,53.5,0,0,0,11.881-6.186,69.212,69.212,0,0,0,10.417-7.8c3.876-3.7,3.537-9.052,2.672-13.95a32.688,32.688,0,0,0-2.939-9.514c-.659-1.263-1.689-2.352-2.265-3.648-.62-1.4-.158-3.149.03-4.606a10.236,10.236,0,0,0-2.9-9.1c-2.978-2.769-6.932-3.129-10.751-2.267-3.013.679-1.738,5.308,1.276,4.628Z"></path><path class="c" d="M277.435,185.517c-3.485,2.707-7.242,7.019-6.138,11.765a7.657,7.657,0,0,0,4.8,5.476c2.339.7,4.7-.318,6.915-.992l-1.849-4.387c-3.73,1.583-7.269,4.461-6.455,8.954a5.909,5.909,0,0,0,3.588,4.517,8.9,8.9,0,0,0,5.908-.147l-1.849-4.386c-3.636,1.776-6.581,5.467-4.564,9.593,1.608,3.291,5.837,3.932,9.138,3.673a2.461,2.461,0,0,0,2.4-2.4,2.419,2.419,0,0,0-2.4-2.4,12.824,12.824,0,0,1-2.336.029c-.731-.115-2.018-.282-2.459-.9-1.049-1.478,1.382-2.831,2.644-3.448,2.443-1.193.732-5.2-1.85-4.386-1.5.474-3.572,1.019-3.559-1.092.011-1.824,2.828-2.87,4.216-3.459,2.514-1.067.717-5.17-1.849-4.387-.8.243-1.58.53-2.381.757a3.8,3.8,0,0,1-1.836.294,3.076,3.076,0,0,1-1.644-2.616c-.08-2.62,3.091-5.213,4.955-6.661a2.412,2.412,0,0,0,0-3.394,2.463,2.463,0,0,0-3.394,0Z"></path><path class="c" d="M254.9,223.067c1.425,2.192,3.685,3.18,5.987,4.214,2.285,1.026,4.6,1.991,6.952,2.85,4.412,1.611,8.951,2.84,13.459,4.146,2.973.862,4.242-3.769,1.276-4.628-4.163-1.207-8.352-2.346-12.443-3.783-1.905-.67-3.79-1.4-5.642-2.208-1.061-.462-2.122-.933-3.165-1.436a5.3,5.3,0,0,1-2.28-1.578c-1.677-2.58-5.834-.177-4.144,2.423Z"></path></svg>